<svg width="17" height="14" viewBox="0 0 17 14" fill="none" xmlns="http://www.w3.org/2000/svg">
<path d="M16.15 5.9944H2.193L5.712 1.68677C6.035 1.28698 6.0265 0.657331 5.6865 0.27754C5.3465 -0.102251 4.811 -0.0922572 4.488 0.307523L0.748 4.87501C0.2635 5.4447 0 6.19429 0 6.99385C0 7.79341 0.2635 8.543 0.7395 9.10269L4.488 13.6902C4.658 13.8901 4.879 14 5.1 14C5.321 14 5.525 13.91 5.6865 13.7202C6.0265 13.3404 6.035 12.7007 5.712 12.3109L2.193 7.9933H16.15C16.6175 7.9933 17 7.54355 17 6.99385C17 6.44415 16.6175 5.9944 16.15 5.9944Z" fill="#262626"/>
</svg>
