<svg width="16" height="15" viewBox="0 0 16 15" fill="none" xmlns="http://www.w3.org/2000/svg">
<g clip-path="url(#clip0_16_221)">
<path d="M10.8937 1.81247C10.4019 1.39561 9.88625 0.957471 9.36125 0.479961C8.95851 0.113691 8.41458 -0.0560549 7.87499 0.0162205C7.3521 0.0853025 6.88687 0.38293 6.605 0.828711C5.85998 2.07371 5.33322 3.43686 5.04749 4.85935C4.93537 4.69745 4.83591 4.52718 4.74998 4.34996C4.45397 3.72629 3.70842 3.46065 3.08475 3.75667C2.93375 3.82833 2.79866 3.92955 2.68748 4.05433C1.63915 5.1256 1.05799 6.56861 1.07123 8.06744C1.04144 11.2178 3.16051 13.9837 6.20999 14.775C6.77738 14.9177 7.35992 14.9916 7.94498 14.995C7.96373 14.995 8.1631 14.9931 8.24372 14.9875C11.975 14.8666 14.9359 11.8044 14.9312 8.07119C14.9287 5.23997 13.0588 3.65246 10.8937 1.81247ZM7.92937 13.7406C7.46422 13.7052 7.00455 13.5168 6.6575 13.2368C6.11405 12.8523 5.75443 12.2884 5.66876 11.6387C5.5625 10.6249 6.18752 9.29932 7.4644 7.80184C7.59828 7.64545 7.79416 7.55583 8.00003 7.55683C8.20323 7.55536 8.39648 7.64475 8.52691 7.80058C9.69691 9.18934 10.3394 10.4706 10.3394 11.4087C10.3358 12.6412 9.37244 13.6162 8.14567 13.735C8.09179 13.7402 8 13.7481 7.92937 13.7406ZM11.485 12.5518C11.4481 12.5806 11.4075 12.6037 11.37 12.6312C11.5142 12.2393 11.5885 11.8251 11.5894 11.4074C11.5894 9.82807 10.4425 8.13556 9.48128 6.99368C9.11352 6.55812 8.57258 6.30664 8.00252 6.30617H8C7.4288 6.30515 6.8859 6.5549 6.515 6.98929C4.98688 8.7793 4.28501 10.3874 4.42874 11.7693C4.46287 12.0901 4.54482 12.404 4.67188 12.7005C3.18776 11.6252 2.31327 9.90014 2.32312 8.06741C2.31105 6.87682 2.78056 5.73184 3.62498 4.89242C3.76915 5.19213 3.94227 5.47701 4.14187 5.74306C4.416 6.11366 4.88431 6.28563 5.33311 6.18055C5.7907 6.07933 6.14598 5.71842 6.23999 5.25931C6.4911 3.93204 6.97095 2.65851 7.65811 1.49557C7.74266 1.36262 7.88232 1.27455 8.03873 1.25557C8.21355 1.23204 8.38977 1.28721 8.51999 1.40618C9.05624 1.89368 9.5825 2.34368 10.0825 2.76682C12.1687 4.53869 13.6769 5.8187 13.6769 8.07119C13.6822 9.82411 12.8731 11.4801 11.4869 12.5531L11.485 12.5518Z" fill="#262626"/>
</g>
<defs>
<clipPath id="clip0_16_221">
<rect width="15" height="15" fill="white" transform="translate(0.5)"/>
</clipPath>
</defs>
</svg>
