<svg width="20" height="20" viewBox="0 0 20 20" fill="none" xmlns="http://www.w3.org/2000/svg">
<path d="M15 4.99997C14.8437 4.84374 14.6318 4.75598 14.4108 4.75598C14.1898 4.75598 13.9779 4.84374 13.8216 4.99997L9.99997 8.82164L6.1783 4.99997C6.02203 4.84374 5.81011 4.75598 5.58914 4.75598C5.36817 4.75598 5.15624 4.84374 4.99997 4.99997C4.84374 5.15624 4.75598 5.36817 4.75598 5.58914C4.75598 5.81011 4.84374 6.02203 4.99997 6.1783L8.82164 9.99997L4.99997 13.8216C4.84374 13.9779 4.75598 14.1898 4.75598 14.4108C4.75598 14.6318 4.84374 14.8437 4.99997 15C5.15624 15.1562 5.36817 15.244 5.58914 15.244C5.81011 15.244 6.02203 15.1562 6.1783 15L9.99997 11.1783L13.8216 15C13.9779 15.1562 14.1898 15.244 14.4108 15.244C14.6318 15.244 14.8437 15.1562 15 15C15.1562 14.8437 15.244 14.6318 15.244 14.4108C15.244 14.1898 15.1562 13.9779 15 13.8216L11.1783 9.99997L15 6.1783C15.1562 6.02203 15.244 5.81011 15.244 5.58914C15.244 5.36817 15.1562 5.15624 15 4.99997Z" fill="#B7B7B7"/>
</svg>
