<svg width="25" height="26" viewBox="0 0 25 26" fill="none" xmlns="http://www.w3.org/2000/svg">
<path d="M14.2662 14.0688C14.268 14.4492 14.1681 14.8233 13.9765 15.1534C13.785 15.4835 13.5087 15.7581 13.1753 15.9494C12.8419 16.1407 12.4633 16.242 12.0777 16.243C11.692 16.2441 11.3128 16.1449 10.9784 15.9555C10.6439 15.7661 10.366 15.4931 10.1726 15.164C9.97915 14.8349 9.87709 14.4614 9.87665 14.0811C9.87621 13.7007 9.97741 13.327 10.1701 12.9975C10.3627 12.668 10.64 12.3943 10.974 12.2042V7.57552C10.974 7.2885 11.0896 7.01323 11.2954 6.81028C11.5013 6.60732 11.7804 6.4933 12.0714 6.4933C12.3625 6.4933 12.6416 6.60732 12.8474 6.81028C13.0532 7.01323 13.1688 7.2885 13.1688 7.57552V12.2042C13.5015 12.3928 13.778 12.6644 13.9706 12.9917C14.1632 13.3189 14.2652 13.6904 14.2662 14.0688ZM20.9165 5.9944C22.5154 7.69216 23.5772 9.81318 23.9716 12.0973C24.366 14.3815 24.0758 16.7295 23.1368 18.8535C22.1977 20.9774 20.6506 22.7849 18.685 24.0544C16.7195 25.3238 14.421 26 12.0714 26C9.72187 26 7.42339 25.3238 5.45784 24.0544C3.49229 22.7849 1.94512 20.9774 1.00607 18.8535C0.0670132 16.7295 -0.223106 14.3815 0.171288 12.0973C0.565682 9.81318 1.62744 7.69216 3.22637 5.9944L2.48891 5.18599C2.0421 5.34109 1.57105 5.41729 1.09741 5.41109C0.80636 5.41109 0.527231 5.29707 0.321428 5.09411C0.115625 4.89116 6.6782e-06 4.61589 6.6782e-06 4.32887C6.6782e-06 4.04185 0.115625 3.76658 0.321428 3.56363C0.527231 3.36067 0.80636 3.24665 1.09741 3.24665C1.95887 3.24665 2.19481 3.01398 2.19481 2.16443C2.19481 1.87741 2.31043 1.60215 2.51623 1.39919C2.72204 1.19624 3.00116 1.08222 3.29221 1.08222C3.58326 1.08222 3.86239 1.19624 4.06819 1.39919C4.274 1.60215 4.38961 1.87741 4.38961 2.16443C4.39601 2.69107 4.29137 3.21328 4.08234 3.69794L4.85711 4.5464C6.63721 3.2253 8.75541 2.41958 10.974 2.21963V1.08222C10.974 0.795196 11.0896 0.519929 11.2954 0.316974C11.5013 0.114019 11.7804 0 12.0714 0C12.3625 0 12.6416 0.114019 12.8474 0.316974C13.0532 0.519929 13.1688 0.795196 13.1688 1.08222V2.21963C15.3873 2.41926 17.5055 3.22461 19.2857 4.54531L20.0605 3.69685C19.8516 3.21253 19.747 2.69071 19.7532 2.16443C19.7532 1.87741 19.8689 1.60215 20.0747 1.39919C20.2805 1.19624 20.5596 1.08222 20.8506 1.08222C21.1417 1.08222 21.4208 1.19624 21.6266 1.39919C21.8324 1.60215 21.948 1.87741 21.948 2.16443C21.948 3.01398 22.184 3.24665 23.0454 3.24665C23.3365 3.24665 23.6156 3.36067 23.8214 3.56363C24.0272 3.76658 24.1428 4.04185 24.1428 4.32887C24.1428 4.61589 24.0272 4.89116 23.8214 5.09411C23.6156 5.29707 23.3365 5.41109 23.0454 5.41109C22.5718 5.41729 22.1008 5.34109 21.6539 5.18599L20.9165 5.9944ZM21.948 14.0688C21.948 12.1424 21.3688 10.2593 20.2835 8.6576C19.1983 7.05587 17.6558 5.80747 15.851 5.07028C14.0463 4.33309 12.0605 4.1402 10.1446 4.51602C8.22872 4.89184 6.46887 5.81948 5.08761 7.18164C3.70634 8.54379 2.76568 10.2793 2.38459 12.1687C2.0035 14.058 2.19909 16.0164 2.94662 17.7961C3.69416 19.5759 4.96007 21.0971 6.58427 22.1673C8.20848 23.2375 10.118 23.8088 12.0714 23.8088C14.69 23.8059 17.2004 22.7788 19.052 20.9529C20.9036 19.1269 21.9451 16.6511 21.948 14.0688Z" fill="#B7B7B7"/>
</svg>
