<svg width="29" height="28" viewBox="0 0 29 28" fill="none" xmlns="http://www.w3.org/2000/svg">
<path d="M20.3081 7.24143C21.4701 5.9728 22.1834 4.35952 22.3388 2.64836C22.3838 2.29551 22.3473 1.93706 22.2321 1.60044C22.1168 1.26381 21.9259 0.957955 21.6738 0.706268C21.4217 0.454581 21.1153 0.263741 20.7779 0.148356C20.4404 0.0329718 20.081 -0.003898 19.7271 0.0405694C18.6627 0.123923 17.6292 0.43638 16.6975 0.956414C15.7659 1.47645 14.9585 2.19169 14.3308 3.05288C13.9333 2.06125 13.3714 1.14341 12.6684 0.337837C12.4502 0.122206 12.1557 0.000849503 11.8486 4.44297e-06C11.5414 -0.000840617 11.2463 0.118894 11.0269 0.333321C10.8076 0.547748 10.6817 0.839639 10.6765 1.14589C10.6712 1.45214 10.7871 1.74814 10.999 1.96989C12.1579 3.40893 12.8361 5.17361 12.9384 7.01644H10.0836C7.37245 7.09905 4.80458 8.24949 2.94217 10.2159C1.07976 12.1823 0.0745678 14.8044 0.146651 17.5082C-0.0415663 24.0364 6.74478 30.0669 12.714 27.2831C13.1698 26.994 13.6997 26.8423 14.2399 26.8463C14.7801 26.8502 15.3077 27.0095 15.7593 27.3052C16.5226 27.7452 17.3855 27.9843 18.267 28C30.2661 27.6689 31.7882 10.0264 20.3081 7.24143ZM16.7741 3.71502C17.6809 2.92429 18.8196 2.44673 20.0205 2.35342C19.9247 3.54851 19.4464 4.68129 18.6563 5.58489C17.7487 6.37514 16.6098 6.85262 15.4086 6.94649C15.5036 5.75098 15.9824 4.61781 16.7741 3.71502ZM18.267 25.6685C17.7518 25.6488 17.2506 25.4957 16.8127 25.2243C16.0102 24.7622 15.1019 24.5137 14.1753 24.5027C13.2979 24.5231 12.4394 24.7606 11.677 25.194C7.16681 27.1385 2.36785 22.3356 2.48476 17.5082C2.41266 15.4227 3.17154 13.3936 4.59548 11.8644C6.01942 10.3353 7.99259 9.43052 10.0836 9.34795H18.267C28.3208 9.72215 28.3208 25.2978 18.267 25.6685Z" fill="#B7B7B7"/>
</svg>
