<svg width="29" height="28" viewBox="0 0 29 28" fill="none" xmlns="http://www.w3.org/2000/svg">
<g clip-path="url(#clip0_37_31)">
<path d="M14.1428 0C6.42299 0 0.142822 6.28017 0.142822 14C0.142822 21.7198 6.42299 28 14.1428 28C21.8627 28 28.1428 21.7198 28.1428 14C28.1428 6.28017 21.8627 0 14.1428 0ZM9.47616 24.6913V24.5C9.47616 21.9263 11.5692 19.8333 14.1428 19.8333C16.7165 19.8333 18.8095 21.9263 18.8095 24.5V24.6913C17.3792 25.3178 15.8018 25.6667 14.1428 25.6667C12.4838 25.6667 10.9065 25.3178 9.47616 24.6913ZM21.0553 23.3928C20.5233 20.0573 17.6265 17.5 14.1428 17.5C10.6592 17.5 7.76349 20.0573 7.23032 23.3928C4.34866 21.266 2.47616 17.8477 2.47616 14C2.47616 7.567 7.70982 2.33333 14.1428 2.33333C20.5758 2.33333 25.8095 7.567 25.8095 14C25.8095 17.8477 23.937 21.266 21.0553 23.3928ZM14.1428 5.83333C11.5692 5.83333 9.47616 7.92633 9.47616 10.5C9.47616 13.0737 11.5692 15.1667 14.1428 15.1667C16.7165 15.1667 18.8095 13.0737 18.8095 10.5C18.8095 7.92633 16.7165 5.83333 14.1428 5.83333ZM14.1428 12.8333C12.856 12.8333 11.8095 11.7868 11.8095 10.5C11.8095 9.21317 12.856 8.16667 14.1428 8.16667C15.4297 8.16667 16.4762 9.21317 16.4762 10.5C16.4762 11.7868 15.4297 12.8333 14.1428 12.8333Z" fill="#B7B7B7"/>
</g>
<defs>
<clipPath id="clip0_37_31">
<rect width="28" height="28" fill="white" transform="translate(0.142822)"/>
</clipPath>
</defs>
</svg>
