<svg width="64" height="64" viewBox="0 0 64 64" fill="none" xmlns="http://www.w3.org/2000/svg">
<g filter="url(#filter0_d_33_471)">
<circle cx="33" cy="33" r="25" fill="#FFFEFC"/>
</g>
<path fill-rule="evenodd" clip-rule="evenodd" d="M24.811 22.899H33.1257H37.2831H41.4405C43.0848 22.8949 44.6633 23.5453 45.8275 24.7067C46.9917 25.868 47.6459 27.4448 47.6459 29.0892V39.6354C47.6459 41.2798 46.9917 42.8567 45.8275 44.018C44.6633 45.1793 43.0848 45.8297 41.4405 45.8256H24.811C23.1666 45.8297 21.5882 45.1793 20.424 44.018C19.2598 42.8567 18.6055 41.2798 18.6055 39.6354V29.0892C18.6055 27.4448 19.2598 25.868 20.424 24.7067C21.5882 23.5453 23.1666 22.8949 24.811 22.899ZM41.4405 43.533C43.5661 43.5336 45.3034 41.837 45.3533 39.7119V29.0892C45.3448 26.9342 43.5955 25.1917 41.4405 25.1917H24.811C22.656 25.1917 20.9066 26.9342 20.8982 29.0892V39.6354C20.9066 41.7905 22.656 43.533 24.811 43.533H41.4405Z" fill="#262626"/>
<path fill-rule="evenodd" clip-rule="evenodd" d="M26.905 34.7903C26.905 31.4138 29.6422 28.6765 33.0187 28.6765C36.3953 28.6765 39.1325 31.4138 39.1325 34.7903C39.1325 38.1668 36.3953 40.9041 33.0187 40.9041C29.6422 40.9041 26.905 38.1668 26.905 34.7903ZM29.1976 34.7903C29.1976 36.9006 30.9084 38.6114 33.0187 38.6114C35.1291 38.6114 36.8398 36.9006 36.8398 34.7903C36.8398 32.68 35.1291 30.9692 33.0187 30.9692C30.9084 30.9692 29.1976 32.68 29.1976 34.7903Z" fill="#262626"/>
<path d="M39.1325 27.8588C39.1325 27.4579 39.4576 27.1328 39.8585 27.1328H41.4634C41.8644 27.1328 42.1894 27.4579 42.1894 27.8588V29.479C42.1894 29.8799 41.8644 30.205 41.4634 30.205H39.8585C39.4576 30.205 39.1325 29.8799 39.1325 29.479V27.8588Z" fill="#262626"/>
<path d="M39.0606 23.909L38.0962 21.739C37.5837 20.5861 37.3275 20.0096 36.8305 19.6866C36.3334 19.3636 35.7026 19.3636 34.4409 19.3636H31.5591C30.2974 19.3636 29.6666 19.3636 29.1695 19.6866C28.6725 20.0096 28.4163 20.5861 27.9038 21.739L26.9394 23.909" stroke="#262626" stroke-width="2.5"/>
<defs>
<filter id="filter0_d_33_471" x="0" y="0" width="64" height="64" filterUnits="userSpaceOnUse" color-interpolation-filters="sRGB">
<feFlood flood-opacity="0" result="BackgroundImageFix"/>
<feColorMatrix in="SourceAlpha" type="matrix" values="0 0 0 0 0 0 0 0 0 0 0 0 0 0 0 0 0 0 127 0" result="hardAlpha"/>
<feOffset dx="-1" dy="-1"/>
<feGaussianBlur stdDeviation="3.5"/>
<feComposite in2="hardAlpha" operator="out"/>
<feColorMatrix type="matrix" values="0 0 0 0 0 0 0 0 0 0 0 0 0 0 0 0 0 0 0.25 0"/>
<feBlend mode="normal" in2="BackgroundImageFix" result="effect1_dropShadow_33_471"/>
<feBlend mode="normal" in="SourceGraphic" in2="effect1_dropShadow_33_471" result="shape"/>
</filter>
</defs>
</svg>
