<svg width="13" height="14" viewBox="0 0 13 14" fill="none" xmlns="http://www.w3.org/2000/svg">
<g clip-path="url(#clip0_31_103)">
<path d="M12.1875 5.79297H7.3125V0.917969C7.3125 0.46924 6.94873 0.105469 6.5 0.105469C6.05127 0.105469 5.6875 0.46924 5.6875 0.917969V5.79297H0.8125C0.363771 5.79297 0 6.15674 0 6.60547C0 7.0542 0.363771 7.41797 0.8125 7.41797H5.6875V12.293C5.6875 12.7417 6.05127 13.1055 6.5 13.1055C6.94873 13.1055 7.3125 12.7417 7.3125 12.293V7.41797H12.1875C12.6362 7.41797 13 7.0542 13 6.60547C13 6.15674 12.6362 5.79297 12.1875 5.79297Z" fill="#FFFEFC"/>
</g>
<defs>
<clipPath id="clip0_31_103">
<rect width="13" height="13" fill="white" transform="translate(0 0.105469)"/>
</clipPath>
</defs>
</svg>
