<svg width="15" height="15" viewBox="0 0 15 15" fill="none" xmlns="http://www.w3.org/2000/svg">
<g clip-path="url(#clip0_20_217)">
<path d="M0.833139 4.52373C0.302514 3.45123 -0.749986 0.793107 0.750014 0.0937316C0.973026 0.000895968 1.2186 -0.0235372 1.45554 0.0235376C1.69247 0.0706124 1.91005 0.187069 2.08064 0.358107L5.18064 3.67061C5.2392 3.72814 5.28586 3.79665 5.31794 3.87221C5.35003 3.94778 5.36691 4.02893 5.36764 4.11102C5.36837 4.19311 5.35291 4.27454 5.32217 4.35067C5.29142 4.42679 5.24599 4.49611 5.18845 4.55467C5.13092 4.61323 5.06241 4.65989 4.98684 4.69197C4.91128 4.72406 4.83013 4.74095 4.74804 4.74167C4.66595 4.7424 4.58451 4.72694 4.50839 4.6962C4.43227 4.66545 4.36295 4.62002 4.30439 4.56248L1.25001 1.29998C1.32439 3.66061 2.71439 5.42498 4.27564 7.19936C4.39548 7.31456 4.46466 7.47265 4.46794 7.63886C4.47122 7.80506 4.40834 7.96576 4.29314 8.08561C4.17794 8.20545 4.01984 8.27462 3.85364 8.27791C3.68743 8.28119 3.52673 8.21831 3.40689 8.10311C2.38096 7.04025 1.51407 5.83466 0.833139 4.52373ZM11.2531 10.125C11.168 10.0317 11.0616 9.96027 10.9431 9.91676C10.8245 9.87325 10.6972 9.85892 10.5719 9.87498C9.84686 9.97231 9.10933 9.91045 8.41064 9.69373C8.30365 9.66216 8.19009 9.66025 8.0821 9.68821C7.9741 9.71618 7.87574 9.77295 7.79751 9.85248C6.86376 11.2625 9.84376 11.1731 10.4925 11.1525L13.9194 14.8019C13.9757 14.8617 14.0431 14.9099 14.118 14.9436C14.1929 14.9774 14.2737 14.996 14.3558 14.9985C14.4379 15.0011 14.5197 14.9874 14.5965 14.9583C14.6733 14.9292 14.7436 14.8853 14.8035 14.829C14.8633 14.7728 14.9115 14.7053 14.9452 14.6304C14.9789 14.5555 14.9976 14.4747 15.0001 14.3926C15.0027 14.3106 14.989 14.2288 14.9599 14.152C14.9308 14.0751 14.8869 14.0048 14.8306 13.945L11.2531 10.125ZM9.37501 8.74998C9.78539 8.75056 10.1918 8.67015 10.5711 8.51335C10.9503 8.35655 11.2949 8.12645 11.585 7.83623L14.8169 4.60373C14.875 4.5457 14.9211 4.4768 14.9526 4.40095C14.9841 4.3251 15.0003 4.2438 15.0004 4.16167C15.0004 4.07955 14.9843 3.99822 14.9529 3.92233C14.9216 3.84644 14.8755 3.77747 14.8175 3.71936C14.7595 3.66125 14.6906 3.61514 14.6147 3.58365C14.5389 3.55217 14.4576 3.53594 14.3755 3.53588C14.2933 3.53583 14.212 3.55194 14.1361 3.58332C14.0602 3.61469 13.9912 3.6607 13.9331 3.71873L10.7013 6.95123C10.4268 7.22331 10.075 7.40392 9.6939 7.46837C9.31285 7.53281 8.92118 7.47793 8.57251 7.31123L12.9419 2.94186C13.0016 2.8842 13.0492 2.81524 13.082 2.73898C13.1147 2.66273 13.1319 2.58072 13.1327 2.49773C13.1334 2.41475 13.1176 2.33245 13.0862 2.25564C13.0547 2.17882 13.0083 2.10904 12.9496 2.05036C12.891 1.99168 12.8212 1.94527 12.7444 1.91384C12.6675 1.88242 12.5853 1.8666 12.5023 1.86732C12.4193 1.86805 12.3373 1.88529 12.261 1.91804C12.1848 1.9508 12.1158 1.99841 12.0581 2.05811L7.68751 6.42748C7.52082 6.07881 7.46594 5.68715 7.53038 5.30609C7.59482 4.92503 7.77544 4.5732 8.04751 4.29873L11.2813 1.06686C11.3951 0.94898 11.4581 0.791104 11.4567 0.627231C11.4553 0.463358 11.3895 0.3066 11.2737 0.19072C11.1578 0.0748399 11.001 0.00910928 10.8371 0.00768527C10.6733 0.00626126 10.5154 0.0692578 10.3975 0.183107L7.16501 3.41498C6.65673 3.92499 6.33974 4.59459 6.26745 5.311C6.19516 6.0274 6.37199 6.74684 6.76814 7.34811L0.183139 13.9331C0.06929 14.051 0.00629346 14.2089 0.00771748 14.3727C0.00914149 14.5366 0.0748721 14.6934 0.190752 14.8092C0.306632 14.9251 0.46339 14.9909 0.627263 14.9923C0.791136 14.9937 0.949012 14.9307 1.06689 14.8169L7.65189 8.23186C8.16304 8.56977 8.76226 8.74994 9.37501 8.74998Z" fill="#262626"/>
</g>
<defs>
<clipPath id="clip0_20_217">
<rect width="15" height="15" fill="white"/>
</clipPath>
</defs>
</svg>
