<svg width="20" height="20" viewBox="0 0 15 15" fill="none" xmlns="http://www.w3.org/2000/svg">
<path d="M14.5 9.5C14.5 16 12.1944 14.5 7.5 14.5C3 13.5 2 12.5 0.5 8.5C0.5 3.80558 2.80558 0.5 7.5 0.5C12.1944 0.5 14.5 4.80558 14.5 9.5Z" fill="#FFFEFC"/>
<path d="M6.43788 10.5983C6.27353 10.5984 6.11077 10.5661 5.95891 10.5033C5.80705 10.4404 5.66908 10.3483 5.55288 10.232L3.18788 7.92015C3.06936 7.80412 3.00179 7.64576 3.00004 7.47991C2.99828 7.31405 3.06248 7.1543 3.17851 7.03578C3.29454 6.91726 3.4529 6.84969 3.61875 6.84793C3.78461 6.84617 3.94436 6.91037 4.06288 7.0264L6.43351 9.34328L10.6873 5.15578C10.8072 5.05023 10.963 4.99463 11.1227 5.00041C11.2824 5.00618 11.4338 5.07289 11.5458 5.18683C11.6578 5.30077 11.7219 5.45328 11.725 5.61303C11.7281 5.77278 11.6698 5.92763 11.5623 6.04578L7.31663 10.2377C7.20107 10.3526 7.06397 10.4436 6.91318 10.5055C6.76239 10.5674 6.60087 10.5989 6.43788 10.5983Z" fill="#F4B24E"/>
</svg>
