<svg width="20" height="20" viewBox="0 0 15 15" fill="none" xmlns="http://www.w3.org/2000/svg">
<path d="M15.0009 11.8758V7.71329C15.0243 5.78669 14.3179 3.9226 13.0236 2.49527C11.7294 1.06795 9.94313 0.183063 8.02345 0.0182896C6.95198 -0.0566744 5.87691 0.0993769 4.87097 0.475885C3.86503 0.852393 2.9517 1.44057 2.19277 2.20063C1.43384 2.96069 0.847012 3.87489 0.471995 4.88139C0.0969788 5.88788 -0.0574785 6.96318 0.0190738 8.03454C0.295324 12.0058 3.8022 15.0008 8.17782 15.0008H11.8759C12.7044 14.9998 13.4987 14.6702 14.0846 14.0844C14.6704 13.4986 15 12.7043 15.0009 11.8758ZM7.93845 1.26579C9.54248 1.40769 11.0334 2.15136 12.1116 3.34739C13.1899 4.54341 13.7755 6.10318 13.7509 7.71329V11.8758C13.7509 12.3731 13.5534 12.85 13.2018 13.2016C12.8501 13.5532 12.3732 13.7508 11.8759 13.7508H8.17782C4.40657 13.7508 1.50095 11.3133 1.26657 7.94829C1.20504 7.09115 1.32093 6.23054 1.607 5.42021C1.89307 4.60988 2.34317 3.86725 2.92918 3.23871C3.51519 2.61017 4.22453 2.10924 5.01286 1.76719C5.8012 1.42515 6.65161 1.24936 7.51095 1.25079C7.65282 1.25079 7.79595 1.25641 7.93845 1.26579Z" fill="#FBDD6B"/>
<path d="M6.43788 10.5983C6.27353 10.5984 6.11077 10.5661 5.95891 10.5033C5.80705 10.4404 5.66908 10.3483 5.55288 10.232L3.18788 7.92015C3.06936 7.80412 3.00179 7.64576 3.00004 7.47991C2.99828 7.31405 3.06248 7.1543 3.17851 7.03578C3.29454 6.91726 3.4529 6.84969 3.61875 6.84793C3.78461 6.84617 3.94436 6.91037 4.06288 7.0264L6.43351 9.34328L10.6873 5.15578C10.8072 5.05023 10.963 4.99463 11.1227 5.00041C11.2824 5.00618 11.4338 5.07289 11.5458 5.18683C11.6578 5.30077 11.7219 5.45328 11.725 5.61303C11.7281 5.77278 11.6698 5.92763 11.5623 6.04578L7.31663 10.2377C7.20107 10.3526 7.06397 10.4436 6.91318 10.5055C6.76239 10.5674 6.60087 10.5989 6.43788 10.5983Z" fill="#FBDD6B"/>
</svg>
